<?xml version="1.0" standalone="no"?>
<!DOCTYPE svg PUBLIC "-//W3C//DTD SVG 1.1//EN" 
  "http://www.w3.org/Graphics/SVG/1.1/DTD/svg11.dtd">
<svg width="170.000mm" height="89.500mm" version="1.1"
     viewBox="0 0 170.000 89.500"
     xmlns="http://www.w3.org/2000/svg"  xmlns:xlink="http://www.w3.org/1999/xlink" 
     xmlns:fpd="http://www.schaeffer-ag.de">
  <desc>Diese Zeichnung wurde mit dem Frontplatten Desinger durch den Export der Datei 'buzzclock_front.fpd' erzeugt.</desc>
  <defs>
    <pattern id="revside-fill" x="1" y="1" width="1.5" height="1.5" patternUnits="userSpaceOnUse">
      <line x1="0" y1="0" x2="1" y2="1" style="stroke-width:0.2; stroke:black; stroke-dasharray:none;" />
      <line x1="0" y1="1" x2="1" y2="0" style="stroke-width:0.2; stroke:black; stroke-dasharray:none;" />
    </pattern>
    <pattern id="revside-fill-e0e0e0" x="1" y="1" width="1.5" height="1.5" patternUnits="userSpaceOnUse">
      <line x1="0" y1="0" x2="1.5" y2="1.5" style="stroke-width:0.2; stroke:#e0e0e0; stroke-dasharray:none;" />
      <line x1="0" y1="1.5" x2="1.5" y2="0" style="stroke-width:0.2; stroke:#e0e0e0; stroke-dasharray:none;" />
    </pattern>
  </defs>
<g transform="scale(1,-1) translate(0, -89.500)" 
   fill-rule="evenodd"
   style="stroke-linecap:round; stroke-linejoin:round; stroke-opacity:1.0; stroke-opacity:1.0;">
<path d="M170.000 89.500 
L0.000 89.500
L0.000 89.500
L0.000 0.000
L0.000 0.000
L170.000 0.000
L170.000 0.000
L170.000 89.500
L170.000 89.500z"
fill="#cccccc" vector-effect="non-scaling-stroke" stroke="#000000" stroke-width="0.100mm" />
<path d="M117.844 10.284 
L117.844 6.543
L117.672 6.543
L117.672 10.370
L118.059 10.370
L118.059 6.543
L118.059 7.876
A1.055,1.055 0 0,0 118.532,8.693
A4.826,4.826 0 0,0 120.338,8.779
A0.533,0.533 0 0,0 120.811,8.392
A4.116,4.116 0 0,0 120.811,7.231
A0.562,0.562 0 0,0 120.510,6.887
A3.205,3.205 0 0,0 119.607,6.844
A4.654,4.654 0 0,0 118.446,6.973
A1.924,1.924 0 0,1 119.134,6.758
A3.986,3.986 0 0,1 120.381,6.715
A0.617,0.617 0 0,1 121.026,7.274
A7.858,7.858 0 0,1 121.026,8.263
A0.561,0.561 0 0,1 120.682,8.822
A2.779,2.779 0 0,1 119.306,8.908
L118.618 8.822
A2.475,2.475 0 0,0 119.134,8.994
A3.508,3.508 0 0,0 120.768,8.951
A0.586,0.586 0 0,0 121.198,8.435
A8.204,8.204 0 0,0 121.198,7.145
A0.558,0.558 0 0,0 120.639,6.629
A6.850,6.850 0 0,0 119.134,6.586
A0.855,0.855 0 0,0 118.274,7.489
A0.531,0.531 0 0,1 118.747,7.016
A6.651,6.651 0 0,1 120.209,7.016
A0.541,0.541 0 0,1 120.682,7.489
A3.130,3.130 0 0,1 120.682,8.177
A0.541,0.541 0 0,1 120.209,8.650
A6.651,6.651 0 0,1 118.747,8.650
A0.531,0.531 0 0,1 118.274,8.177
A3.130,3.130 0 0,1 118.274,7.489
L118.231 7.446
A0.938,0.938 0 0,1 119.091,6.500
A6.682,6.682 0 0,1 120.768,6.500
A0.751,0.751 0 0,1 121.413,7.145
A5.483,5.483 0 0,1 121.413,8.521
A0.751,0.751 0 0,1 120.768,9.166
A6.511,6.511 0 0,1 119.134,9.166
A1.111,1.111 0 0,1 118.231,8.521
L118.231 10.456
L117.500 10.456
L117.500 6.500
L118.231 6.500
L118.231 7.446
M126.100 8.994 
L126.100 6.629
L126.272 6.629
L126.272 9.037
L125.885 9.037
L125.885 6.629
L125.885 8.005
A6.754,6.754 0 0,0 125.498,7.016
A1.040,1.040 0 0,0 124.552,6.586
A10.017,10.017 0 0,0 123.606,6.586
A0.661,0.661 0 0,0 122.918,7.188
L122.918 9.080
L123.133 9.080
L123.133 7.274
A0.588,0.588 0 0,1 123.692,6.715
A5.086,5.086 0 0,1 124.810,6.715
A0.737,0.737 0 0,1 125.326,6.930
A2.208,2.208 0 0,0 124.509,6.801
A10.946,10.946 0 0,0 123.821,6.844
A0.521,0.521 0 0,0 123.348,7.360
L123.348 9.080
L123.520 9.166
L122.746 9.166
L122.746 7.188
A0.682,0.682 0 0,1 123.391,6.500
A14.571,14.571 0 0,1 124.767,6.500
A0.955,0.955 0 0,1 125.670,7.489
L125.670 6.500
L126.444 6.500
L126.444 9.166
L125.670 9.166
L125.670 7.532
A0.575,0.575 0 0,0 125.154,6.973
A5.086,5.086 0 0,0 124.036,6.973
A0.575,0.575 0 0,0 123.520,7.532
L123.520 9.166
M130.142 8.865 
L127.992 8.865
L127.992 9.037
L130.701 9.037
L130.701 8.564
L128.336 6.844
L128.336 6.801
L130.873 6.801
L130.873 6.629
L127.906 6.629
L127.906 6.973
L130.314 8.865
L130.486 8.865
L130.486 8.693
L128.121 6.887
L128.121 6.715
L127.691 6.500
L131.002 6.500
L131.002 6.930
L128.766 6.930
L130.916 8.564
L130.916 9.166
L127.820 9.166
L127.820 8.736
L129.841 8.736
L127.691 7.102
L127.691 6.500
M134.700 8.865 
L132.550 8.865
L132.550 9.037
L135.259 9.037
L135.259 8.564
L132.894 6.844
L132.894 6.801
L135.431 6.801
L135.431 6.629
L132.464 6.629
L132.464 6.973
L134.872 8.865
L135.044 8.865
L135.044 8.693
L132.679 6.887
L132.679 6.715
L132.249 6.500
L135.560 6.500
L135.560 6.930
L133.324 6.930
L135.474 8.564
L135.474 9.166
L132.378 9.166
L132.378 8.736
L134.399 8.736
L132.249 7.102
L132.249 6.500
M140.548 8.392 
A0.702,0.702 0 0,1 139.989,9.037
A13.227,13.227 0 0,1 137.495,9.037
A0.639,0.639 0 0,1 137.022,8.478
L137.022 7.102
A0.556,0.556 0 0,1 137.538,6.629
A15.315,15.315 0 0,1 139.946,6.629
A0.740,0.740 0 0,1 140.548,7.274
L140.333 7.274
A0.664,0.664 0 0,0 139.774,6.758
A8.224,8.224 0 0,0 137.710,6.758
A0.543,0.543 0 0,0 137.194,7.274
L137.194 8.349
A0.528,0.528 0 0,0 137.710,8.865
A7.472,7.472 0 0,0 139.817,8.908
A0.615,0.615 0 0,0 140.376,8.392
L140.161 8.392
A0.677,0.677 0 0,1 139.731,8.736
A6.860,6.860 0 0,1 137.796,8.736
A0.477,0.477 0 0,1 137.409,8.263
L137.409 7.317
A0.476,0.476 0 0,1 137.796,6.887
A8.216,8.216 0 0,1 139.602,6.887
A0.563,0.563 0 0,1 140.118,7.274
L139.946 7.360
L140.720 7.360
A0.800,0.800 0 0,0 140.075,6.500
A27.776,27.776 0 0,0 137.452,6.500
A0.634,0.634 0 0,0 136.850,7.102
A15.481,15.481 0 0,0 136.850,8.564
A0.634,0.634 0 0,0 137.452,9.166
A27.776,27.776 0 0,0 140.075,9.166
A0.801,0.801 0 0,0 140.720,8.306
L139.946 8.306
A0.654,0.654 0 0,1 139.430,8.650
A7.298,7.298 0 0,1 138.054,8.650
A0.522,0.522 0 0,1 137.581,8.177
A3.649,3.649 0 0,1 137.581,7.489
A0.522,0.522 0 0,1 138.054,7.016
A7.298,7.298 0 0,1 139.430,7.016
A0.654,0.654 0 0,1 139.946,7.360
M142.397 10.327 
L142.397 6.629
L142.182 6.629
L142.182 10.327
L142.612 10.327
L142.612 6.629
L142.784 6.500
L142.784 10.456
L142.010 10.456
L142.010 6.500
L142.784 6.500
M144.633 8.134 
A5.807,5.807 0 0,1 144.633,7.403
A0.650,0.650 0 0,1 145.321,6.887
A5.793,5.793 0 0,1 146.955,6.887
A0.650,0.650 0 0,1 147.471,7.575
A5.466,5.466 0 0,1 147.471,8.263
A0.544,0.544 0 0,1 147.084,8.736
A6.731,6.731 0 0,1 144.977,8.736
A0.593,0.593 0 0,1 144.633,8.134
L144.848 8.177
A3.130,3.130 0 0,1 144.848,7.489
A0.541,0.541 0 0,1 145.321,7.016
A6.651,6.651 0 0,1 146.783,7.016
A0.541,0.541 0 0,1 147.256,7.489
A3.130,3.130 0 0,1 147.256,8.177
A0.541,0.541 0 0,1 146.783,8.650
A6.651,6.651 0 0,1 145.321,8.650
A0.541,0.541 0 0,1 144.848,8.177
L144.461 8.220
A7.175,7.175 0 0,1 144.461,7.317
A0.696,0.696 0 0,1 145.192,6.758
A6.046,6.046 0 0,1 147.084,6.801
A0.554,0.554 0 0,1 147.643,7.274
A8.200,8.200 0 0,1 147.643,8.306
A0.643,0.643 0 0,1 146.955,8.908
A15.378,15.378 0 0,1 145.020,8.865
A0.552,0.552 0 0,1 144.461,8.220
L144.289 8.392
A9.225,9.225 0 0,1 144.289,7.231
A0.691,0.691 0 0,1 144.977,6.629
A9.596,9.596 0 0,1 147.385,6.672
A0.508,0.508 0 0,1 147.815,7.188
A10.933,10.933 0 0,1 147.815,8.564
A0.663,0.663 0 0,1 147.127,9.037
A17.766,17.766 0 0,1 144.891,9.037
A0.597,0.597 0 0,1 144.289,8.392
L144.117 8.564
A11.616,11.616 0 0,1 144.117,7.102
A0.644,0.644 0 0,1 144.719,6.500
A21.182,21.182 0 0,1 147.385,6.500
A0.644,0.644 0 0,1 147.987,7.102
A11.616,11.616 0 0,1 147.987,8.564
A0.644,0.644 0 0,1 147.385,9.166
A21.182,21.182 0 0,1 144.719,9.166
A0.644,0.644 0 0,1 144.117,8.564
M153.018 8.392 
A0.702,0.702 0 0,1 152.459,9.037
A13.227,13.227 0 0,1 149.965,9.037
A0.639,0.639 0 0,1 149.492,8.478
L149.492 7.102
A0.556,0.556 0 0,1 150.008,6.629
A15.315,15.315 0 0,1 152.416,6.629
A0.740,0.740 0 0,1 153.018,7.274
L152.803 7.274
A0.664,0.664 0 0,0 152.244,6.758
A8.224,8.224 0 0,0 150.180,6.758
A0.543,0.543 0 0,0 149.664,7.274
L149.664 8.349
A0.528,0.528 0 0,0 150.180,8.865
A7.472,7.472 0 0,0 152.287,8.908
A0.615,0.615 0 0,0 152.846,8.392
L152.631 8.392
A0.677,0.677 0 0,1 152.201,8.736
A6.860,6.860 0 0,1 150.266,8.736
A0.477,0.477 0 0,1 149.879,8.263
L149.879 7.317
A0.476,0.476 0 0,1 150.266,6.887
A8.216,8.216 0 0,1 152.072,6.887
A0.563,0.563 0 0,1 152.588,7.274
L152.416 7.360
L153.190 7.360
A0.800,0.800 0 0,0 152.545,6.500
A27.776,27.776 0 0,0 149.922,6.500
A0.634,0.634 0 0,0 149.320,7.102
A15.481,15.481 0 0,0 149.320,8.564
A0.634,0.634 0 0,0 149.922,9.166
A27.776,27.776 0 0,0 152.545,9.166
A0.801,0.801 0 0,0 153.190,8.306
L152.416 8.306
A0.654,0.654 0 0,1 151.900,8.650
A7.298,7.298 0 0,1 150.524,8.650
A0.522,0.522 0 0,1 150.051,8.177
A3.649,3.649 0 0,1 150.051,7.489
A0.522,0.522 0 0,1 150.524,7.016
A7.298,7.298 0 0,1 151.900,7.016
A0.654,0.654 0 0,1 152.416,7.360
M154.867 10.284 
L154.867 6.629
L154.652 6.629
L154.652 10.327
L155.082 10.327
L155.082 6.629
L155.082 7.833
L156.157 7.833
L157.404 6.629
L157.662 6.629
L156.200 7.962
L157.447 9.080
L156.974 9.080
L155.856 8.048
L155.254 8.048
L155.770 8.048
L157.189 6.629
L155.899 7.919
L157.189 9.080
L157.748 9.166
L156.458 7.962
L158.006 6.500
L157.060 6.500
L155.770 7.704
L155.254 7.704
L155.254 6.500
L154.480 6.500
L154.480 10.456
L155.254 10.456
L155.254 8.220
L155.770 8.220
L156.802 9.166
L157.748 9.166"
fill="none" vector-effect="non-scaling-stroke" stroke="#b80000" stroke-width="0.200mm" fpd:engraving_ral_3001="1" />
<circle cx="5.000" cy="79.500" r="1.500"
fill="#ffffff" vector-effect="non-scaling-stroke" stroke="#000000" stroke-width="0.100mm" 
/>
<circle cx="5.000" cy="39.500" r="1.500"
fill="#ffffff" vector-effect="non-scaling-stroke" stroke="#000000" stroke-width="0.100mm" 
/>
<circle cx="165.000" cy="39.500" r="1.500"
fill="#ffffff" vector-effect="non-scaling-stroke" stroke="#000000" stroke-width="0.100mm" 
/>
<circle cx="165.000" cy="79.500" r="1.500"
fill="#ffffff" vector-effect="non-scaling-stroke" stroke="#000000" stroke-width="0.100mm" 
/>
<rect x="13.250" y="31.500" width="145.000" height="45.000" rx="1.500"
fill="#ffffff" vector-effect="non-scaling-stroke" stroke="#000000" stroke-width="0.100mm" 
/>
<path d="M170.000 89.500 
L0.000 89.500
L0.000 89.500
L0.000 0.000
L0.000 0.000
L170.000 0.000
L170.000 0.000
L170.000 89.500
L170.000 89.500"
fill="none" vector-effect="non-scaling-stroke" stroke="#000000" stroke-width="0.100mm" />
</g>
</svg>
