<?xml version="1.0" standalone="no"?>
<!DOCTYPE svg PUBLIC "-//W3C//DTD SVG 1.1//EN" 
  "http://www.w3.org/Graphics/SVG/1.1/DTD/svg11.dtd">
<svg width="170.000mm" height="89.500mm" version="1.1"
     viewBox="0 0 170.000 89.500"
     xmlns="http://www.w3.org/2000/svg"  xmlns:xlink="http://www.w3.org/1999/xlink" 
     xmlns:fpd="http://www.schaeffer-ag.de">
  <desc>Diese Zeichnung wurde mit dem Frontplatten Desinger durch den Export der Datei 'buzzclock_back.fpd' erzeugt.</desc>
  <defs>
    <pattern id="revside-fill" x="1" y="1" width="1.5" height="1.5" patternUnits="userSpaceOnUse">
      <line x1="0" y1="0" x2="1" y2="1" style="stroke-width:0.2; stroke:black; stroke-dasharray:none;" />
      <line x1="0" y1="1" x2="1" y2="0" style="stroke-width:0.2; stroke:black; stroke-dasharray:none;" />
    </pattern>
    <pattern id="revside-fill-e0e0e0" x="1" y="1" width="1.5" height="1.5" patternUnits="userSpaceOnUse">
      <line x1="0" y1="0" x2="1.5" y2="1.5" style="stroke-width:0.2; stroke:#e0e0e0; stroke-dasharray:none;" />
      <line x1="0" y1="1.5" x2="1.5" y2="0" style="stroke-width:0.2; stroke:#e0e0e0; stroke-dasharray:none;" />
    </pattern>
  </defs>
<g transform="scale(1,-1) translate(0, -89.500)" 
   fill-rule="evenodd"
   style="stroke-linecap:round; stroke-linejoin:round; stroke-opacity:1.0; stroke-opacity:1.0;">
<path d="M170.000 89.500 
L0.000 89.500
L0.000 89.500
L0.000 0.000
L0.000 0.000
L170.000 0.000
L170.000 0.000
L170.000 89.500
L170.000 89.500z"
fill="#cccccc" vector-effect="non-scaling-stroke" stroke="#000000" stroke-width="0.100mm" />
<path d="M33.189 28.239 
L33.189 26.433
L33.084 26.433
L33.084 28.239
L33.294 28.239
L33.294 26.433
L33.294 27.441
A1.422,1.422 0 0,1 33.588,27.168
A0.406,0.406 0 0,1 33.840,27.063
A3.248,3.248 0 0,1 34.554,27.063
A0.355,0.355 0 0,1 34.848,27.399
A2.227,2.227 0 0,1 34.848,27.819
A0.403,0.403 0 0,1 34.533,28.239
A1.906,1.906 0 0,1 33.819,28.239
A0.842,0.842 0 0,1 33.483,28.092
A1.391,1.391 0 0,0 33.777,28.176
A1.815,1.815 0 0,0 34.512,28.155
A0.305,0.305 0 0,0 34.743,27.840
A3.072,3.072 0 0,0 34.743,27.357
A0.352,0.352 0 0,0 34.407,27.105
A1.693,1.693 0 0,0 33.672,27.168
A2.607,2.607 0 0,1 34.407,27.189
A0.233,0.233 0 0,1 34.638,27.420
A1.911,1.911 0 0,1 34.638,27.840
A0.279,0.279 0 0,1 34.365,28.113
A2.260,2.260 0 0,1 33.588,28.092
A0.278,0.278 0 0,1 33.378,27.819
A1.529,1.529 0 0,1 33.378,27.483
A0.264,0.264 0 0,1 33.609,27.252
A3.248,3.248 0 0,1 34.323,27.252
A0.264,0.264 0 0,1 34.554,27.483
A1.529,1.529 0 0,1 34.554,27.819
A0.264,0.264 0 0,1 34.323,28.050
A3.248,3.248 0 0,1 33.609,28.050
A0.264,0.264 0 0,1 33.378,27.819
L33.378 28.302
L33.000 28.302
L33.000 26.370
L33.378 26.370
L33.378 27.315
A0.748,0.748 0 0,1 33.798,27.000
A3.180,3.180 0 0,1 34.596,27.000
A0.367,0.367 0 0,1 34.911,27.315
A2.678,2.678 0 0,1 34.911,27.987
A0.367,0.367 0 0,1 34.596,28.302
A3.263,3.263 0 0,1 33.777,28.302
A0.466,0.466 0 0,1 33.378,27.819
M35.751 28.260 
L35.751 27.042
L35.646 27.042
L35.646 28.260
L35.856 28.260
L35.856 27.042
L35.856 27.483
L35.961 27.924
A0.274,0.274 0 0,0 36.150,28.113
A0.534,0.534 0 0,0 36.654,28.071
A0.361,0.361 0 0,0 36.801,27.840
L36.990 27.840
A0.362,0.362 0 0,1 36.969,28.029
A0.324,0.324 0 0,1 36.738,28.218
A2.021,2.021 0 0,1 36.423,28.260
A0.462,0.462 0 0,1 36.045,28.092
A0.872,0.872 0 0,0 36.297,28.197
A0.662,0.662 0 0,0 36.738,28.134
A0.347,0.347 0 0,0 36.885,27.840
L37.074 27.798
L37.074 27.966
A0.333,0.333 0 0,1 36.759,28.302
A4.003,4.003 0 0,1 36.381,28.302
A0.466,0.466 0 0,1 35.940,27.819
L35.940 28.302
L35.562 28.302
L35.562 27.000
L35.940 27.000
L35.940 27.798
A0.281,0.281 0 0,0 36.192,28.071
A1.146,1.146 0 0,0 36.444,28.071
A0.281,0.281 0 0,0 36.696,27.798
L37.074 27.798
M37.977 27.798 
A2.836,2.836 0 0,1 37.977,27.441
A0.317,0.317 0 0,1 38.313,27.189
A2.829,2.829 0 0,1 39.111,27.189
A0.317,0.317 0 0,1 39.363,27.525
A2.670,2.670 0 0,1 39.363,27.861
A0.266,0.266 0 0,1 39.174,28.092
A3.286,3.286 0 0,1 38.145,28.092
A0.290,0.290 0 0,1 37.977,27.798
L38.082 27.819
A1.529,1.529 0 0,1 38.082,27.483
A0.264,0.264 0 0,1 38.313,27.252
A3.248,3.248 0 0,1 39.027,27.252
A0.264,0.264 0 0,1 39.258,27.483
A1.529,1.529 0 0,1 39.258,27.819
A0.264,0.264 0 0,1 39.027,28.050
A3.248,3.248 0 0,1 38.313,28.050
A0.264,0.264 0 0,1 38.082,27.819
L37.893 27.840
A3.504,3.504 0 0,1 37.893,27.399
A0.339,0.339 0 0,1 38.250,27.126
A2.953,2.953 0 0,1 39.174,27.147
A0.270,0.270 0 0,1 39.447,27.378
A4.004,4.004 0 0,1 39.447,27.882
A0.314,0.314 0 0,1 39.111,28.176
A7.510,7.510 0 0,1 38.166,28.155
A0.270,0.270 0 0,1 37.893,27.840
L37.809 27.924
A4.505,4.505 0 0,1 37.809,27.357
A0.338,0.338 0 0,1 38.145,27.063
A4.687,4.687 0 0,1 39.321,27.084
A0.248,0.248 0 0,1 39.531,27.336
A5.339,5.339 0 0,1 39.531,28.008
A0.324,0.324 0 0,1 39.195,28.239
A8.676,8.676 0 0,1 38.103,28.239
A0.292,0.292 0 0,1 37.809,27.924
L37.725 28.008
A5.673,5.673 0 0,1 37.725,27.294
A0.314,0.314 0 0,1 38.019,27.000
A10.345,10.345 0 0,1 39.321,27.000
A0.314,0.314 0 0,1 39.615,27.294
A5.673,5.673 0 0,1 39.615,28.008
A0.314,0.314 0 0,1 39.321,28.302
A10.345,10.345 0 0,1 38.019,28.302
A0.314,0.314 0 0,1 37.725,28.008
M41.694 27.210 
A0.661,0.661 0 0,0 41.379,27.063
A2.260,2.260 0 0,0 40.602,27.084
A0.327,0.327 0 0,0 40.371,27.357
A2.771,2.771 0 0,0 40.371,27.966
A0.306,0.306 0 0,0 40.623,28.239
A2.415,2.415 0 0,0 41.379,28.239
A0.806,0.806 0 0,0 41.715,28.071
A1.842,1.842 0 0,1 41.211,28.197
A2.227,2.227 0 0,1 40.791,28.197
A0.334,0.334 0 0,1 40.455,27.945
A4.505,4.505 0 0,1 40.455,27.378
A0.254,0.254 0 0,1 40.707,27.147
A5.017,5.017 0 0,1 41.337,27.105
A0.968,0.968 0 0,1 41.778,27.294
A1.588,1.588 0 0,0 41.400,27.168
A2.581,2.581 0 0,0 40.833,27.189
A0.266,0.266 0 0,0 40.560,27.420
A2.450,2.450 0 0,0 40.560,27.882
A0.295,0.295 0 0,0 40.896,28.134
A2.005,2.005 0 0,0 41.274,28.134
A1.579,1.579 0 0,0 41.715,28.071
A0.389,0.389 0 0,0 41.820,27.819
L41.820 27.483
A0.264,0.264 0 0,0 41.589,27.252
A3.248,3.248 0 0,0 40.875,27.252
A0.264,0.264 0 0,0 40.644,27.483
A1.529,1.529 0 0,0 40.644,27.819
A0.264,0.264 0 0,0 40.875,28.050
A3.248,3.248 0 0,0 41.589,28.050
A0.264,0.264 0 0,0 41.820,27.819
L42.009 28.218
L42.009 26.790
A0.360,0.360 0 0,0 41.673,26.433
A7.342,7.342 0 0,0 40.749,26.433
A0.296,0.296 0 0,0 40.476,26.622
L40.371 26.622
A0.326,0.326 0 0,1 40.665,26.391
A8.509,8.509 0 0,1 41.736,26.391
A0.358,0.358 0 0,1 42.093,26.790
L42.093 28.260
L41.904 28.260
L41.904 26.769
A0.272,0.272 0 0,0 41.652,26.496
A7.342,7.342 0 0,0 40.728,26.496
A0.200,0.200 0 0,0 40.560,26.622
L40.644 26.664
A0.154,0.154 0 0,1 40.791,26.538
A4.566,4.566 0 0,1 41.652,26.538
A0.214,0.214 0 0,1 41.820,26.748
L41.820 27.336
A0.525,0.525 0 0,0 41.400,27.021
A3.180,3.180 0 0,0 40.602,27.021
A0.367,0.367 0 0,0 40.287,27.336
A2.593,2.593 0 0,0 40.287,27.987
A0.367,0.367 0 0,0 40.602,28.302
A3.263,3.263 0 0,0 41.421,28.302
A0.489,0.489 0 0,0 41.820,27.651
L41.820 28.302
L42.198 28.302
L42.198 26.748
A0.419,0.419 0 0,0 41.799,26.349
A12.231,12.231 0 0,0 40.644,26.349
A0.405,0.405 0 0,0 40.266,26.664
L40.644 26.664
M43.017 28.260 
L43.017 27.042
L42.912 27.042
L42.912 28.260
L43.122 28.260
L43.122 27.042
L43.122 27.483
L43.227 27.924
A0.274,0.274 0 0,0 43.416,28.113
A0.534,0.534 0 0,0 43.920,28.071
A0.361,0.361 0 0,0 44.067,27.840
L44.256 27.840
A0.362,0.362 0 0,1 44.235,28.029
A0.324,0.324 0 0,1 44.004,28.218
A2.021,2.021 0 0,1 43.689,28.260
A0.462,0.462 0 0,1 43.311,28.092
A0.872,0.872 0 0,0 43.563,28.197
A0.662,0.662 0 0,0 44.004,28.134
A0.347,0.347 0 0,0 44.151,27.840
L44.340 27.798
L44.340 27.966
A0.333,0.333 0 0,1 44.025,28.302
A4.003,4.003 0 0,1 43.647,28.302
A0.466,0.466 0 0,1 43.206,27.819
L43.206 28.302
L42.828 28.302
L42.828 27.000
L43.206 27.000
L43.206 27.798
A0.281,0.281 0 0,0 43.458,28.071
A1.146,1.146 0 0,0 43.710,28.071
A0.281,0.281 0 0,0 43.962,27.798
L44.340 27.798
M45.390 28.197 
A0.289,0.289 0 0,1 45.243,28.113
L45.075 28.113
A0.235,0.235 0 0,0 45.243,28.239
A12.675,12.675 0 0,0 46.440,28.239
A0.292,0.292 0 0,0 46.629,27.924
L46.629 27.063
L46.524 27.063
L46.524 27.966
A0.209,0.209 0 0,1 46.314,28.176
A0.191,0.191 0 0,0 46.440,27.966
L46.440 27.063
L46.440 27.378
L46.356 27.378
A0.427,0.427 0 0,0 46.293,27.231
A0.444,0.444 0 0,0 46.146,27.105
L46.062 27.063
L45.957 27.021
L45.306 27.021
A0.325,0.325 0 0,0 45.033,27.378
L45.033 27.483
A0.306,0.306 0 0,0 45.264,27.756
L45.957 27.756
A0.462,0.462 0 0,0 46.125,27.714
L46.020 27.714
L45.348 27.714
A0.321,0.321 0 0,1 45.390,27.084
L45.957 27.084
A0.275,0.275 0 0,1 46.104,27.126
L45.390 27.126
A0.293,0.293 0 0,0 45.390,27.672
L46.230 27.672
L46.104 27.651
L45.558 27.651
A0.242,0.242 0 0,1 45.558,27.168
L46.104 27.168
A0.243,0.243 0 0,1 46.104,27.651
L45.978 27.798
A11.671,11.671 0 0,1 45.243,27.798
A0.286,0.286 0 0,1 44.970,27.504
L44.970 27.294
A0.286,0.286 0 0,1 45.243,27.000
A11.671,11.671 0 0,1 45.978,27.000
A0.392,0.392 0 0,1 46.356,27.378
L46.356 27.000
L46.734 27.000
L46.734 27.966
A0.333,0.333 0 0,1 46.419,28.302
A12.008,12.008 0 0,1 45.285,28.302
A0.292,0.292 0 0,1 44.970,28.050
L45.348 28.050
A0.239,0.239 0 0,0 45.558,28.176
L46.146 28.176
A0.209,0.209 0 0,0 46.356,27.966
L46.356 27.420
A0.392,0.392 0 0,1 45.978,27.798
M47.553 28.218 
L47.553 27.042
L47.448 27.042
L47.448 28.239
L47.658 28.239
L47.658 27.042
L47.658 27.567
A1.932,1.932 0 0,0 47.805,28.029
A0.382,0.382 0 0,0 48.078,28.218
A1.571,1.571 0 0,0 48.666,28.239
A0.542,0.542 0 0,0 49.002,27.672
A1.537,1.537 0 0,0 49.149,28.029
A0.483,0.483 0 0,0 49.527,28.239
A2.787,2.787 0 0,0 50.052,28.218
A0.281,0.281 0 0,0 50.304,27.945
L50.304 27.042
L50.199 27.042
L50.199 27.903
A0.263,0.263 0 0,1 49.968,28.155
A2.008,2.008 0 0,1 49.464,28.155
A0.432,0.432 0 0,1 49.149,28.029
A0.950,0.950 0 0,0 49.947,28.071
A0.194,0.194 0 0,0 50.094,27.882
L50.094 27.042
L50.094 27.882
A0.194,0.194 0 0,1 49.947,28.071
A0.950,0.950 0 0,1 49.149,28.029
A1.537,1.537 0 0,1 49.002,27.672
L49.002 27.042
L48.897 27.042
L48.897 27.756
A0.437,0.437 0 0,1 48.624,28.176
A1.273,1.273 0 0,1 47.994,28.134
A0.232,0.232 0 0,1 47.847,28.050
A1.597,1.597 0 0,0 48.540,28.113
A0.334,0.334 0 0,0 48.792,27.777
L48.792 27.042
L48.687 27.000
L49.065 27.000
L49.065 27.798
A0.248,0.248 0 0,0 49.275,28.050
A2.092,2.092 0 0,0 49.800,28.050
A0.248,0.248 0 0,0 50.010,27.798
L50.010 27.000
L50.388 27.000
L50.388 27.966
A0.333,0.333 0 0,1 50.073,28.302
A6.226,6.226 0 0,1 49.485,28.302
A0.537,0.537 0 0,1 49.086,27.903
A0.565,0.565 0 0,1 48.708,28.302
A2.484,2.484 0 0,1 48.162,28.302
A0.472,0.472 0 0,1 47.742,27.882
L47.742 28.302
L47.364 28.302
L47.364 27.000
L47.742 27.000
L47.742 27.798
A0.248,0.248 0 0,0 47.952,28.050
A2.092,2.092 0 0,0 48.477,28.050
A0.248,0.248 0 0,0 48.687,27.798
L48.687 27.000
M90.897 27.189 
A0.121,0.121 0 0,1 91.002,27.105
A9.178,9.178 0 0,1 92.157,27.084
A0.231,0.231 0 0,1 92.346,27.378
A0.222,0.222 0 0,1 92.157,27.630
A16.676,16.676 0 0,1 91.107,27.651
A0.305,0.305 0 0,0 90.897,27.882
A0.435,0.435 0 0,0 90.897,28.071
A0.214,0.214 0 0,0 91.107,28.239
A5.681,5.681 0 0,0 92.178,28.218
A0.178,0.178 0 0,0 92.283,28.092
L92.388 28.092
A0.161,0.161 0 0,1 92.241,28.260
A5.732,5.732 0 0,1 90.981,28.260
A0.189,0.189 0 0,1 90.813,28.092
A0.872,0.872 0 0,1 90.813,27.819
A0.214,0.214 0 0,1 91.023,27.630
L92.010 27.609
A0.242,0.242 0 0,0 92.010,27.126
A14.676,14.676 0 0,0 91.086,27.147
A0.088,0.088 0 0,0 91.002,27.231
L90.771 27.231
A0.208,0.208 0 0,1 90.960,27.063
A8.147,8.147 0 0,1 92.241,27.063
A0.201,0.201 0 0,1 92.430,27.273
A1.502,1.502 0 0,1 92.430,27.462
A0.171,0.171 0 0,1 92.283,27.651
A6.950,6.950 0 0,1 91.191,27.693
A0.275,0.275 0 0,0 91.149,28.218
A5.878,5.878 0 0,0 92.073,28.197
A0.133,0.133 0 0,0 92.178,28.071
L92.094 28.050
L92.472 28.050
A0.251,0.251 0 0,1 92.241,28.302
A10.345,10.345 0 0,1 90.939,28.302
A0.237,0.237 0 0,1 90.729,28.050
L90.729 27.819
A0.217,0.217 0 0,1 90.939,27.588
L91.926 27.588
A0.210,0.210 0 0,0 91.926,27.168
L91.254 27.168
A0.176,0.176 0 0,0 91.086,27.294
L90.708 27.294
L90.708 27.252
A0.229,0.229 0 0,1 90.918,27.021
A11.012,11.012 0 0,1 92.304,27.021
A0.229,0.229 0 0,1 92.514,27.252
L92.514 27.462
A0.229,0.229 0 0,1 92.304,27.693
L91.275 27.735
A0.222,0.222 0 0,0 91.275,28.176
L91.926 28.176
A0.176,0.176 0 0,0 92.094,28.050
M93.480 27.693 
L94.614 27.693
L94.614 27.987
A0.282,0.282 0 0,1 94.425,28.176
A2.904,2.904 0 0,1 93.606,28.176
A0.231,0.231 0 0,1 93.396,27.924
L93.396 27.693
L93.480 27.756
L94.530 27.756
L94.530 27.924
A0.190,0.190 0 0,1 94.383,28.113
A1.735,1.735 0 0,1 93.627,28.113
A0.209,0.209 0 0,1 93.480,27.945
L93.480 27.756
L93.396 27.651
L93.396 27.336
A0.220,0.220 0 0,1 93.627,27.126
A8.005,8.005 0 0,1 94.383,27.126
A0.306,0.306 0 0,1 94.614,27.273
L94.824 27.273
A0.311,0.311 0 0,0 94.572,27.042
A6.678,6.678 0 0,0 93.522,27.042
A0.303,0.303 0 0,0 93.228,27.357
L93.228 27.966
A0.296,0.296 0 0,0 93.522,28.260
A7.080,7.080 0 0,0 94.635,28.239
A0.296,0.296 0 0,0 94.824,27.966
L94.824 27.672
L94.719 27.672
L94.719 28.008
A0.249,0.249 0 0,1 94.509,28.218
A4.490,4.490 0 0,1 93.522,28.218
A0.282,0.282 0 0,1 93.312,27.924
L93.312 27.336
A0.265,0.265 0 0,1 93.564,27.084
A7.508,7.508 0 0,1 94.509,27.084
A0.269,0.269 0 0,1 94.719,27.273
L94.551 27.315
L94.908 27.315
L94.908 27.294
A0.310,0.310 0 0,0 94.614,27.000
A12.453,12.453 0 0,0 93.438,27.000
A0.310,0.310 0 0,0 93.144,27.294
A7.561,7.561 0 0,0 93.144,28.008
A0.310,0.310 0 0,0 93.438,28.302
A7.479,7.479 0 0,0 94.614,28.302
A0.310,0.310 0 0,0 94.908,28.008
L94.908 27.630
L93.480 27.630
L93.480 27.399
A0.228,0.228 0 0,1 93.690,27.189
A5.172,5.172 0 0,1 94.341,27.189
A0.265,0.265 0 0,1 94.551,27.315
M95.727 28.260 
L95.727 27.042
L95.622 27.042
L95.622 28.260
L95.832 28.260
L95.832 27.042
L95.832 27.483
L95.937 27.924
A0.274,0.274 0 0,0 96.126,28.113
A0.534,0.534 0 0,0 96.630,28.071
A0.361,0.361 0 0,0 96.777,27.840
L96.966 27.840
A0.362,0.362 0 0,1 96.945,28.029
A0.324,0.324 0 0,1 96.714,28.218
A2.021,2.021 0 0,1 96.399,28.260
A0.462,0.462 0 0,1 96.021,28.092
A0.872,0.872 0 0,0 96.273,28.197
A0.662,0.662 0 0,0 96.714,28.134
A0.347,0.347 0 0,0 96.861,27.840
L97.050 27.798
L97.050 27.966
A0.333,0.333 0 0,1 96.735,28.302
A4.003,4.003 0 0,1 96.357,28.302
A0.466,0.466 0 0,1 95.916,27.819
L95.916 28.302
L95.538 28.302
L95.538 27.000
L95.916 27.000
L95.916 27.798
A0.281,0.281 0 0,0 96.168,28.071
A1.146,1.146 0 0,0 96.420,28.071
A0.281,0.281 0 0,0 96.672,27.798
L97.050 27.798
M97.785 28.743 
L97.974 28.743
L97.974 28.848
L97.785 28.848
L97.785 28.743
L97.680 28.680
L98.058 28.680
L98.058 28.932
L97.680 28.932
L97.680 28.680
M97.869 28.197 
L97.869 27.042
L97.764 27.042
L97.764 28.260
L97.974 28.260
L97.974 27.042
L98.058 27.000
L97.680 27.000
L97.680 28.302
L98.058 28.302
L98.058 27.000
M99.108 28.197 
A0.289,0.289 0 0,1 98.961,28.113
L98.793 28.113
A0.235,0.235 0 0,0 98.961,28.239
A12.675,12.675 0 0,0 100.158,28.239
A0.292,0.292 0 0,0 100.347,27.924
L100.347 27.063
L100.242 27.063
L100.242 27.966
A0.209,0.209 0 0,1 100.032,28.176
A0.191,0.191 0 0,0 100.158,27.966
L100.158 27.063
L100.158 27.378
L100.074 27.378
A0.427,0.427 0 0,0 100.011,27.231
A0.444,0.444 0 0,0 99.864,27.105
L99.780 27.063
L99.675 27.021
L99.024 27.021
A0.325,0.325 0 0,0 98.751,27.378
L98.751 27.483
A0.306,0.306 0 0,0 98.982,27.756
L99.675 27.756
A0.462,0.462 0 0,0 99.843,27.714
L99.738 27.714
L99.066 27.714
A0.321,0.321 0 0,1 99.108,27.084
L99.675 27.084
A0.275,0.275 0 0,1 99.822,27.126
L99.108 27.126
A0.293,0.293 0 0,0 99.108,27.672
L99.948 27.672
L99.822 27.651
L99.276 27.651
A0.242,0.242 0 0,1 99.276,27.168
L99.822 27.168
A0.243,0.243 0 0,1 99.822,27.651
L99.696 27.798
A11.671,11.671 0 0,1 98.961,27.798
A0.286,0.286 0 0,1 98.688,27.504
L98.688 27.294
A0.286,0.286 0 0,1 98.961,27.000
A11.671,11.671 0 0,1 99.696,27.000
A0.392,0.392 0 0,1 100.074,27.378
L100.074 27.000
L100.452 27.000
L100.452 27.966
A0.333,0.333 0 0,1 100.137,28.302
A12.008,12.008 0 0,1 99.003,28.302
A0.292,0.292 0 0,1 98.688,28.050
L99.066 28.050
A0.239,0.239 0 0,0 99.276,28.176
L99.864 28.176
A0.209,0.209 0 0,0 100.074,27.966
L100.074 27.420
A0.392,0.392 0 0,1 99.696,27.798
M101.271 28.869 
L101.271 27.063
L101.166 27.063
L101.166 28.869
L101.376 28.869
L101.376 27.063
L101.460 27.000
L101.460 28.932
L101.082 28.932
L101.082 27.000
L101.460 27.000
M126.513 28.848 
L126.513 27.042
L126.597 27.042
L126.597 28.869
L126.429 28.869
L126.429 27.042
L126.429 27.672
A0.570,0.570 0 0,1 126.219,28.050
A1.285,1.285 0 0,1 125.862,28.113
A3.606,3.606 0 0,1 125.295,28.113
A0.297,0.297 0 0,1 125.064,27.882
A2.008,2.008 0 0,1 125.064,27.378
A0.276,0.276 0 0,1 125.274,27.189
A2.008,2.008 0 0,1 125.589,27.168
A3.136,3.136 0 0,1 126.177,27.231
A0.434,0.434 0 0,0 125.946,27.126
A3.154,3.154 0 0,0 125.253,27.105
A0.297,0.297 0 0,0 124.980,27.378
A1.925,1.925 0 0,0 124.980,27.861
A0.301,0.301 0 0,0 125.253,28.176
A3.873,3.873 0 0,0 125.862,28.176
A1.101,1.101 0 0,0 126.261,28.071
A0.795,0.795 0 0,1 125.904,28.239
A2.761,2.761 0 0,1 125.211,28.239
A0.345,0.345 0 0,1 124.875,27.882
A2.673,2.673 0 0,1 124.875,27.378
A0.410,0.410 0 0,1 125.190,27.042
A3.154,3.154 0 0,1 125.883,27.063
A0.467,0.467 0 0,1 126.219,27.210
A0.372,0.372 0 0,1 126.324,27.483
A0.259,0.259 0 0,0 126.093,27.252
A3.248,3.248 0 0,0 125.379,27.252
A0.264,0.264 0 0,0 125.148,27.483
A1.529,1.529 0 0,0 125.148,27.819
A0.264,0.264 0 0,0 125.379,28.050
A3.248,3.248 0 0,0 126.093,28.050
A0.259,0.259 0 0,0 126.324,27.819
A1.529,1.529 0 0,0 126.324,27.483
L126.345 27.462
A0.465,0.465 0 0,0 125.925,27.000
A3.263,3.263 0 0,0 125.106,27.000
A0.367,0.367 0 0,0 124.791,27.315
A2.678,2.678 0 0,0 124.791,27.987
A0.367,0.367 0 0,0 125.106,28.302
A3.180,3.180 0 0,0 125.904,28.302
A0.542,0.542 0 0,0 126.345,27.987
L126.345 28.932
L126.702 28.932
L126.702 27.000
L126.345 27.000
L126.345 27.462
M129.138 27.924 
A0.343,0.343 0 0,1 128.865,28.239
A6.460,6.460 0 0,1 127.647,28.239
A0.312,0.312 0 0,1 127.416,27.966
L127.416 27.294
A0.271,0.271 0 0,1 127.668,27.063
A7.479,7.479 0 0,1 128.844,27.063
A0.361,0.361 0 0,1 129.138,27.378
L129.033 27.378
A0.324,0.324 0 0,0 128.760,27.126
A4.016,4.016 0 0,0 127.752,27.126
A0.265,0.265 0 0,0 127.500,27.378
L127.500 27.903
A0.258,0.258 0 0,0 127.752,28.155
A3.649,3.649 0 0,0 128.781,28.176
A0.300,0.300 0 0,0 129.054,27.924
L128.949 27.924
A0.331,0.331 0 0,1 128.739,28.092
A3.350,3.350 0 0,1 127.794,28.092
A0.233,0.233 0 0,1 127.605,27.861
L127.605 27.399
A0.233,0.233 0 0,1 127.794,27.189
A4.013,4.013 0 0,1 128.676,27.189
A0.275,0.275 0 0,1 128.928,27.378
L128.844 27.420
L129.222 27.420
A0.391,0.391 0 0,0 128.907,27.000
A13.565,13.565 0 0,0 127.626,27.000
A0.310,0.310 0 0,0 127.332,27.294
A7.561,7.561 0 0,0 127.332,28.008
A0.310,0.310 0 0,0 127.626,28.302
A13.565,13.565 0 0,0 128.907,28.302
A0.391,0.391 0 0,0 129.222,27.882
L128.844 27.882
A0.320,0.320 0 0,1 128.592,28.050
A3.564,3.564 0 0,1 127.920,28.050
A0.255,0.255 0 0,1 127.689,27.819
A1.782,1.782 0 0,1 127.689,27.483
A0.255,0.255 0 0,1 127.920,27.252
A3.564,3.564 0 0,1 128.592,27.252
A0.320,0.320 0 0,1 128.844,27.420
M130.902 28.827 
L130.587 28.827
A0.272,0.272 0 0,1 130.335,28.533
L130.335 27.063
L130.230 27.063
L130.230 28.596
A0.294,0.294 0 0,0 130.503,28.890
L130.944 28.890
L130.944 28.785
L130.713 28.785
A0.292,0.292 0 0,1 130.419,28.491
L130.419 28.239
L129.915 28.239
L129.915 28.134
L130.965 28.134
L130.965 28.239
L130.419 28.239
L130.419 27.063
L130.503 27.000
L130.503 28.071
L131.028 28.071
L131.028 28.302
L130.503 28.302
L130.503 28.449
A0.303,0.303 0 0,0 130.818,28.743
L130.986 28.743
L130.986 28.932
A3.007,3.007 0 0,1 130.419,28.932
A0.332,0.332 0 0,1 130.125,28.596
A9.335,9.335 0 0,0 130.125,28.302
L129.852 28.302
L129.852 28.071
L130.125 28.071
L130.125 27.000
L130.503 27.000
M141.297 28.239 
L141.297 26.433
L141.192 26.433
L141.192 28.239
L141.402 28.239
L141.402 26.433
L141.402 27.441
A1.422,1.422 0 0,1 141.696,27.168
A0.406,0.406 0 0,1 141.948,27.063
A3.248,3.248 0 0,1 142.662,27.063
A0.355,0.355 0 0,1 142.956,27.399
A2.227,2.227 0 0,1 142.956,27.819
A0.403,0.403 0 0,1 142.641,28.239
A1.906,1.906 0 0,1 141.927,28.239
A0.842,0.842 0 0,1 141.591,28.092
A1.391,1.391 0 0,0 141.885,28.176
A1.815,1.815 0 0,0 142.620,28.155
A0.305,0.305 0 0,0 142.851,27.840
A3.072,3.072 0 0,0 142.851,27.357
A0.352,0.352 0 0,0 142.515,27.105
A1.693,1.693 0 0,0 141.780,27.168
A2.607,2.607 0 0,1 142.515,27.189
A0.233,0.233 0 0,1 142.746,27.420
A1.911,1.911 0 0,1 142.746,27.840
A0.279,0.279 0 0,1 142.473,28.113
A2.260,2.260 0 0,1 141.696,28.092
A0.278,0.278 0 0,1 141.486,27.819
A1.529,1.529 0 0,1 141.486,27.483
A0.264,0.264 0 0,1 141.717,27.252
A3.248,3.248 0 0,1 142.431,27.252
A0.264,0.264 0 0,1 142.662,27.483
A1.529,1.529 0 0,1 142.662,27.819
A0.264,0.264 0 0,1 142.431,28.050
A3.248,3.248 0 0,1 141.717,28.050
A0.264,0.264 0 0,1 141.486,27.819
L141.486 28.302
L141.108 28.302
L141.108 26.370
L141.486 26.370
L141.486 27.315
A0.748,0.748 0 0,1 141.906,27.000
A3.180,3.180 0 0,1 142.704,27.000
A0.367,0.367 0 0,1 143.019,27.315
A2.678,2.678 0 0,1 143.019,27.987
A0.367,0.367 0 0,1 142.704,28.302
A3.263,3.263 0 0,1 141.885,28.302
A0.466,0.466 0 0,1 141.486,27.819
M143.775 28.239 
L144.258 27.042
L144.720 27.042
L145.077 28.092
L145.182 28.092
L145.518 27.042
L145.980 27.042
L146.442 28.239
L146.337 28.239
L145.917 27.084
L145.602 27.084
L145.245 28.155
L144.993 28.155
L144.636 27.084
L144.321 27.084
L143.880 28.239
L143.964 28.239
L144.405 27.084
L144.552 27.084
L144.951 28.239
L145.287 28.239
L145.686 27.084
L145.854 27.084
L146.253 28.239
L146.190 28.302
L146.568 28.302
L146.043 27.000
L145.455 27.000
L145.119 28.008
L144.783 27.000
L144.195 27.000
L143.670 28.302
L144.048 28.302
L144.468 27.105
L144.888 28.302
L145.350 28.302
L145.770 27.105
L146.190 28.302
M147.387 28.260 
L147.387 27.042
L147.282 27.042
L147.282 28.260
L147.492 28.260
L147.492 27.042
L147.492 27.483
L147.597 27.924
A0.274,0.274 0 0,0 147.786,28.113
A0.534,0.534 0 0,0 148.290,28.071
A0.361,0.361 0 0,0 148.437,27.840
L148.626 27.840
A0.362,0.362 0 0,1 148.605,28.029
A0.324,0.324 0 0,1 148.374,28.218
A2.021,2.021 0 0,1 148.059,28.260
A0.462,0.462 0 0,1 147.681,28.092
A0.872,0.872 0 0,0 147.933,28.197
A0.662,0.662 0 0,0 148.374,28.134
A0.347,0.347 0 0,0 148.521,27.840
L148.710 27.798
L148.710 27.966
A0.333,0.333 0 0,1 148.395,28.302
A4.003,4.003 0 0,1 148.017,28.302
A0.466,0.466 0 0,1 147.576,27.819
L147.576 28.302
L147.198 28.302
L147.198 27.000
L147.576 27.000
L147.576 27.798
A0.281,0.281 0 0,0 147.828,28.071
A1.146,1.146 0 0,0 148.080,28.071
A0.281,0.281 0 0,0 148.332,27.798
L148.710 27.798"
fill="none" vector-effect="non-scaling-stroke" stroke="#000000" stroke-width="0.200mm" fpd:engraving_ral_9005="1" />
<path d="M32.189 65.689 
A0.121,0.121 0 0,1 32.294,65.605
A9.178,9.178 0 0,1 33.449,65.584
A0.231,0.231 0 0,1 33.638,65.878
A0.222,0.222 0 0,1 33.449,66.130
A16.676,16.676 0 0,1 32.399,66.151
A0.305,0.305 0 0,0 32.189,66.382
A0.435,0.435 0 0,0 32.189,66.571
A0.214,0.214 0 0,0 32.399,66.739
A5.681,5.681 0 0,0 33.470,66.718
A0.178,0.178 0 0,0 33.575,66.592
L33.680 66.592
A0.161,0.161 0 0,1 33.533,66.760
A5.732,5.732 0 0,1 32.273,66.760
A0.189,0.189 0 0,1 32.105,66.592
A0.872,0.872 0 0,1 32.105,66.319
A0.214,0.214 0 0,1 32.315,66.130
L33.302 66.109
A0.242,0.242 0 0,0 33.302,65.626
A14.676,14.676 0 0,0 32.378,65.647
A0.088,0.088 0 0,0 32.294,65.731
L32.063 65.731
A0.208,0.208 0 0,1 32.252,65.563
A8.147,8.147 0 0,1 33.533,65.563
A0.201,0.201 0 0,1 33.722,65.773
A1.502,1.502 0 0,1 33.722,65.962
A0.171,0.171 0 0,1 33.575,66.151
A6.950,6.950 0 0,1 32.483,66.193
A0.275,0.275 0 0,0 32.441,66.718
A5.878,5.878 0 0,0 33.365,66.697
A0.133,0.133 0 0,0 33.470,66.571
L33.386 66.550
L33.764 66.550
A0.251,0.251 0 0,1 33.533,66.802
A10.345,10.345 0 0,1 32.231,66.802
A0.237,0.237 0 0,1 32.021,66.550
L32.021 66.319
A0.217,0.217 0 0,1 32.231,66.088
L33.218 66.088
A0.210,0.210 0 0,0 33.218,65.668
L32.546 65.668
A0.176,0.176 0 0,0 32.378,65.794
L32.000 65.794
L32.000 65.752
A0.229,0.229 0 0,1 32.210,65.521
A11.012,11.012 0 0,1 33.596,65.521
A0.229,0.229 0 0,1 33.806,65.752
L33.806 65.962
A0.229,0.229 0 0,1 33.596,66.193
L32.567 66.235
A0.222,0.222 0 0,0 32.567,66.676
L33.218 66.676
A0.176,0.176 0 0,0 33.386,66.550
M34.541 66.739 
L35.024 65.542
L35.486 65.542
L35.843 66.592
L35.948 66.592
L36.284 65.542
L36.746 65.542
L37.208 66.739
L37.103 66.739
L36.683 65.584
L36.368 65.584
L36.011 66.655
L35.759 66.655
L35.402 65.584
L35.087 65.584
L34.646 66.739
L34.730 66.739
L35.171 65.584
L35.318 65.584
L35.717 66.739
L36.053 66.739
L36.452 65.584
L36.620 65.584
L37.019 66.739
L36.956 66.802
L37.334 66.802
L36.809 65.500
L36.221 65.500
L35.885 66.508
L35.549 65.500
L34.961 65.500
L34.436 66.802
L34.814 66.802
L35.234 65.605
L35.654 66.802
L36.116 66.802
L36.536 65.605
L36.956 66.802
M39.203 67.243 
L39.203 65.563
L39.266 65.563
L39.266 67.327
L38.615 67.327
L38.111 66.865
L38.174 66.781
L38.636 67.222
L39.119 67.222
L39.119 65.563
L39.035 65.563
L39.035 67.138
L38.951 67.138
L38.678 67.138
L38.153 66.655
L37.964 66.865
L38.573 67.432
L39.371 67.432
L39.371 65.500
L38.951 65.500
L38.951 67.138
M51.509 65.689 
A0.121,0.121 0 0,1 51.614,65.605
A9.178,9.178 0 0,1 52.769,65.584
A0.231,0.231 0 0,1 52.958,65.878
A0.222,0.222 0 0,1 52.769,66.130
A16.676,16.676 0 0,1 51.719,66.151
A0.305,0.305 0 0,0 51.509,66.382
A0.435,0.435 0 0,0 51.509,66.571
A0.214,0.214 0 0,0 51.719,66.739
A5.681,5.681 0 0,0 52.790,66.718
A0.178,0.178 0 0,0 52.895,66.592
L53.000 66.592
A0.161,0.161 0 0,1 52.853,66.760
A5.732,5.732 0 0,1 51.593,66.760
A0.189,0.189 0 0,1 51.425,66.592
A0.872,0.872 0 0,1 51.425,66.319
A0.214,0.214 0 0,1 51.635,66.130
L52.622 66.109
A0.242,0.242 0 0,0 52.622,65.626
A14.676,14.676 0 0,0 51.698,65.647
A0.088,0.088 0 0,0 51.614,65.731
L51.383 65.731
A0.208,0.208 0 0,1 51.572,65.563
A8.147,8.147 0 0,1 52.853,65.563
A0.201,0.201 0 0,1 53.042,65.773
A1.502,1.502 0 0,1 53.042,65.962
A0.171,0.171 0 0,1 52.895,66.151
A6.950,6.950 0 0,1 51.803,66.193
A0.275,0.275 0 0,0 51.761,66.718
A5.878,5.878 0 0,0 52.685,66.697
A0.133,0.133 0 0,0 52.790,66.571
L52.706 66.550
L53.084 66.550
A0.251,0.251 0 0,1 52.853,66.802
A10.345,10.345 0 0,1 51.551,66.802
A0.237,0.237 0 0,1 51.341,66.550
L51.341 66.319
A0.217,0.217 0 0,1 51.551,66.088
L52.538 66.088
A0.210,0.210 0 0,0 52.538,65.668
L51.866 65.668
A0.176,0.176 0 0,0 51.698,65.794
L51.320 65.794
L51.320 65.752
A0.229,0.229 0 0,1 51.530,65.521
A11.012,11.012 0 0,1 52.916,65.521
A0.229,0.229 0 0,1 53.126,65.752
L53.126 65.962
A0.229,0.229 0 0,1 52.916,66.193
L51.887 66.235
A0.222,0.222 0 0,0 51.887,66.676
L52.538 66.676
A0.176,0.176 0 0,0 52.706,66.550
M53.861 66.739 
L54.344 65.542
L54.806 65.542
L55.163 66.592
L55.268 66.592
L55.604 65.542
L56.066 65.542
L56.528 66.739
L56.423 66.739
L56.003 65.584
L55.688 65.584
L55.331 66.655
L55.079 66.655
L54.722 65.584
L54.407 65.584
L53.966 66.739
L54.050 66.739
L54.491 65.584
L54.638 65.584
L55.037 66.739
L55.373 66.739
L55.772 65.584
L55.940 65.584
L56.339 66.739
L56.276 66.802
L56.654 66.802
L56.129 65.500
L55.541 65.500
L55.205 66.508
L54.869 65.500
L54.281 65.500
L53.756 66.802
L54.134 66.802
L54.554 65.605
L54.974 66.802
L55.436 66.802
L55.856 65.605
L56.276 66.802
M57.494 67.033 
A0.323,0.323 0 0,0 57.830,67.285
L59.132 67.285
A0.321,0.321 0 0,0 59.426,66.928
L59.426 66.676
A0.290,0.290 0 0,0 59.174,66.403
L57.662 66.277
A0.295,0.295 0 0,1 57.494,65.983
L57.494 65.626
L59.510 65.626
L59.510 65.710
L57.578 65.710
L57.578 65.962
A0.299,0.299 0 0,0 57.788,66.214
L59.300 66.340
A0.314,0.314 0 0,1 59.531,66.634
L59.531 67.033
A0.338,0.338 0 0,1 59.279,67.348
A6.443,6.443 0 0,1 57.662,67.348
A0.328,0.328 0 0,1 57.389,66.970
L57.599 66.970
A0.270,0.270 0 0,0 57.935,67.201
L59.048 67.201
A0.273,0.273 0 0,0 59.321,66.886
L59.321 66.781
A0.280,0.280 0 0,0 59.069,66.466
L57.620 66.340
A0.288,0.288 0 0,1 57.389,66.046
L57.389 65.563
L59.552 65.563
L59.636 65.500
L59.636 65.794
L57.662 65.794
A0.283,0.283 0 0,0 57.914,66.151
L59.321 66.256
A0.344,0.344 0 0,1 59.636,66.613
L59.636 67.054
A0.376,0.376 0 0,1 59.300,67.432
A10.685,10.685 0 0,1 57.620,67.432
A0.376,0.376 0 0,1 57.284,67.054
L57.284 66.907
L57.704 66.907
A0.240,0.240 0 0,0 57.956,67.138
L58.964 67.138
A0.251,0.251 0 0,0 59.216,66.886
L59.216 66.781
A0.281,0.281 0 0,0 58.964,66.508
L57.620 66.403
A0.361,0.361 0 0,1 57.284,66.025
L57.284 65.500
L59.636 65.500
M74.924 65.710 
A0.661,0.661 0 0,0 74.609,65.563
A2.260,2.260 0 0,0 73.832,65.584
A0.327,0.327 0 0,0 73.601,65.857
A2.771,2.771 0 0,0 73.601,66.466
A0.306,0.306 0 0,0 73.853,66.739
A2.415,2.415 0 0,0 74.609,66.739
A0.806,0.806 0 0,0 74.945,66.571
A1.842,1.842 0 0,1 74.441,66.697
A2.227,2.227 0 0,1 74.021,66.697
A0.334,0.334 0 0,1 73.685,66.445
A4.505,4.505 0 0,1 73.685,65.878
A0.254,0.254 0 0,1 73.937,65.647
A5.017,5.017 0 0,1 74.567,65.605
A0.968,0.968 0 0,1 75.008,65.794
A1.588,1.588 0 0,0 74.630,65.668
A2.581,2.581 0 0,0 74.063,65.689
A0.266,0.266 0 0,0 73.790,65.920
A2.450,2.450 0 0,0 73.790,66.382
A0.295,0.295 0 0,0 74.126,66.634
A2.005,2.005 0 0,0 74.504,66.634
A1.579,1.579 0 0,0 74.945,66.571
A0.389,0.389 0 0,0 75.050,66.319
L75.050 65.983
A0.264,0.264 0 0,0 74.819,65.752
A3.248,3.248 0 0,0 74.105,65.752
A0.264,0.264 0 0,0 73.874,65.983
A1.529,1.529 0 0,0 73.874,66.319
A0.264,0.264 0 0,0 74.105,66.550
A3.248,3.248 0 0,0 74.819,66.550
A0.264,0.264 0 0,0 75.050,66.319
L75.239 66.718
L75.239 65.290
A0.360,0.360 0 0,0 74.903,64.933
A7.342,7.342 0 0,0 73.979,64.933
A0.296,0.296 0 0,0 73.706,65.122
L73.601 65.122
A0.326,0.326 0 0,1 73.895,64.891
A8.509,8.509 0 0,1 74.966,64.891
A0.358,0.358 0 0,1 75.323,65.290
L75.323 66.760
L75.134 66.760
L75.134 65.269
A0.272,0.272 0 0,0 74.882,64.996
A7.342,7.342 0 0,0 73.958,64.996
A0.200,0.200 0 0,0 73.790,65.122
L73.874 65.164
A0.154,0.154 0 0,1 74.021,65.038
A4.566,4.566 0 0,1 74.882,65.038
A0.214,0.214 0 0,1 75.050,65.248
L75.050 65.836
A0.525,0.525 0 0,0 74.630,65.521
A3.180,3.180 0 0,0 73.832,65.521
A0.367,0.367 0 0,0 73.517,65.836
A2.593,2.593 0 0,0 73.517,66.487
A0.367,0.367 0 0,0 73.832,66.802
A3.263,3.263 0 0,0 74.651,66.802
A0.489,0.489 0 0,0 75.050,66.151
L75.050 66.802
L75.428 66.802
L75.428 65.248
A0.419,0.419 0 0,0 75.029,64.849
A12.231,12.231 0 0,0 73.874,64.849
A0.405,0.405 0 0,0 73.496,65.164
L73.874 65.164
M76.247 66.739 
L76.247 64.933
L76.142 64.933
L76.142 66.739
L76.352 66.739
L76.352 64.933
L76.352 65.941
A1.422,1.422 0 0,1 76.646,65.668
A0.406,0.406 0 0,1 76.898,65.563
A3.248,3.248 0 0,1 77.612,65.563
A0.355,0.355 0 0,1 77.906,65.899
A2.227,2.227 0 0,1 77.906,66.319
A0.403,0.403 0 0,1 77.591,66.739
A1.906,1.906 0 0,1 76.877,66.739
A0.842,0.842 0 0,1 76.541,66.592
A1.391,1.391 0 0,0 76.835,66.676
A1.815,1.815 0 0,0 77.570,66.655
A0.305,0.305 0 0,0 77.801,66.340
A3.072,3.072 0 0,0 77.801,65.857
A0.352,0.352 0 0,0 77.465,65.605
A1.693,1.693 0 0,0 76.730,65.668
A2.607,2.607 0 0,1 77.465,65.689
A0.233,0.233 0 0,1 77.696,65.920
A1.911,1.911 0 0,1 77.696,66.340
A0.279,0.279 0 0,1 77.423,66.613
A2.260,2.260 0 0,1 76.646,66.592
A0.278,0.278 0 0,1 76.436,66.319
A1.529,1.529 0 0,1 76.436,65.983
A0.264,0.264 0 0,1 76.667,65.752
A3.248,3.248 0 0,1 77.381,65.752
A0.264,0.264 0 0,1 77.612,65.983
A1.529,1.529 0 0,1 77.612,66.319
A0.264,0.264 0 0,1 77.381,66.550
A3.248,3.248 0 0,1 76.667,66.550
A0.264,0.264 0 0,1 76.436,66.319
L76.436 66.802
L76.058 66.802
L76.058 64.870
L76.436 64.870
L76.436 65.815
A0.748,0.748 0 0,1 76.856,65.500
A3.180,3.180 0 0,1 77.654,65.500
A0.367,0.367 0 0,1 77.969,65.815
A2.678,2.678 0 0,1 77.969,66.487
A0.367,0.367 0 0,1 77.654,66.802
A3.263,3.263 0 0,1 76.835,66.802
A0.466,0.466 0 0,1 76.436,66.319
M80.363 67.348 
L80.363 65.542
L80.447 65.542
L80.447 67.369
L80.279 67.369
L80.279 65.542
L80.279 66.172
A0.570,0.570 0 0,1 80.069,66.550
A1.285,1.285 0 0,1 79.712,66.613
A3.606,3.606 0 0,1 79.145,66.613
A0.297,0.297 0 0,1 78.914,66.382
A2.008,2.008 0 0,1 78.914,65.878
A0.276,0.276 0 0,1 79.124,65.689
A2.008,2.008 0 0,1 79.439,65.668
A3.136,3.136 0 0,1 80.027,65.731
A0.434,0.434 0 0,0 79.796,65.626
A3.154,3.154 0 0,0 79.103,65.605
A0.297,0.297 0 0,0 78.830,65.878
A1.925,1.925 0 0,0 78.830,66.361
A0.301,0.301 0 0,0 79.103,66.676
A3.873,3.873 0 0,0 79.712,66.676
A1.101,1.101 0 0,0 80.111,66.571
A0.795,0.795 0 0,1 79.754,66.739
A2.761,2.761 0 0,1 79.061,66.739
A0.345,0.345 0 0,1 78.725,66.382
A2.673,2.673 0 0,1 78.725,65.878
A0.410,0.410 0 0,1 79.040,65.542
A3.154,3.154 0 0,1 79.733,65.563
A0.467,0.467 0 0,1 80.069,65.710
A0.372,0.372 0 0,1 80.174,65.983
A0.259,0.259 0 0,0 79.943,65.752
A3.248,3.248 0 0,0 79.229,65.752
A0.264,0.264 0 0,0 78.998,65.983
A1.529,1.529 0 0,0 78.998,66.319
A0.264,0.264 0 0,0 79.229,66.550
A3.248,3.248 0 0,0 79.943,66.550
A0.259,0.259 0 0,0 80.174,66.319
A1.529,1.529 0 0,0 80.174,65.983
L80.195 65.962
A0.465,0.465 0 0,0 79.775,65.500
A3.263,3.263 0 0,0 78.956,65.500
A0.367,0.367 0 0,0 78.641,65.815
A2.678,2.678 0 0,0 78.641,66.487
A0.367,0.367 0 0,0 78.956,66.802
A3.180,3.180 0 0,0 79.754,66.802
A0.542,0.542 0 0,0 80.195,66.487
L80.195 67.432
L80.552 67.432
L80.552 65.500
L80.195 65.500
L80.195 65.962
M92.984 67.075 
L92.984 65.920
A0.259,0.259 0 0,1 93.152,65.647
A1.158,1.158 0 0,1 93.761,65.647
A0.333,0.333 0 0,1 93.950,65.941
L94.055 65.941
A0.371,0.371 0 0,0 93.719,65.563
A3.118,3.118 0 0,0 93.131,65.563
A0.302,0.302 0 0,0 92.879,65.857
L92.879 67.075
L93.068 67.075
L93.068 66.655
L92.585 66.655
L92.585 66.739
L93.950 66.739
L93.950 66.655
L93.068 66.655
L93.068 65.941
A0.256,0.256 0 0,1 93.278,65.689
A0.858,0.858 0 0,1 93.677,65.710
A0.286,0.286 0 0,1 93.845,65.941
L93.740 66.004
L94.118 66.004
L94.118 65.836
A0.338,0.338 0 0,0 93.803,65.500
A7.561,7.561 0 0,0 93.089,65.500
A0.333,0.333 0 0,0 92.774,65.836
L92.774 66.592
L92.522 66.592
L92.522 66.802
L92.774 66.802
L92.774 67.138
L93.152 67.138
L93.152 66.802
L94.034 66.802
L94.034 66.592
L93.152 66.592
L93.152 66.004
A0.248,0.248 0 0,1 93.362,65.752
A0.669,0.669 0 0,1 93.530,65.752
A0.248,0.248 0 0,1 93.740,66.004
M94.937 66.718 
L94.937 65.542
L94.832 65.542
L94.832 66.739
L95.042 66.739
L95.042 65.542
L95.042 66.067
A1.932,1.932 0 0,0 95.189,66.529
A0.382,0.382 0 0,0 95.462,66.718
A1.571,1.571 0 0,0 96.050,66.739
A0.542,0.542 0 0,0 96.386,66.172
A1.537,1.537 0 0,0 96.533,66.529
A0.483,0.483 0 0,0 96.911,66.739
A2.787,2.787 0 0,0 97.436,66.718
A0.281,0.281 0 0,0 97.688,66.445
L97.688 65.542
L97.583 65.542
L97.583 66.403
A0.263,0.263 0 0,1 97.352,66.655
A2.008,2.008 0 0,1 96.848,66.655
A0.432,0.432 0 0,1 96.533,66.529
A0.950,0.950 0 0,0 97.331,66.571
A0.194,0.194 0 0,0 97.478,66.382
L97.478 65.542
L97.478 66.382
A0.194,0.194 0 0,1 97.331,66.571
A0.950,0.950 0 0,1 96.533,66.529
A1.537,1.537 0 0,1 96.386,66.172
L96.386 65.542
L96.281 65.542
L96.281 66.256
A0.437,0.437 0 0,1 96.008,66.676
A1.273,1.273 0 0,1 95.378,66.634
A0.232,0.232 0 0,1 95.231,66.550
A1.597,1.597 0 0,0 95.924,66.613
A0.334,0.334 0 0,0 96.176,66.277
L96.176 65.542
L96.071 65.500
L96.449 65.500
L96.449 66.298
A0.248,0.248 0 0,0 96.659,66.550
A2.092,2.092 0 0,0 97.184,66.550
A0.248,0.248 0 0,0 97.394,66.298
L97.394 65.500
L97.772 65.500
L97.772 66.466
A0.333,0.333 0 0,1 97.457,66.802
A6.226,6.226 0 0,1 96.869,66.802
A0.537,0.537 0 0,1 96.470,66.403
A0.565,0.565 0 0,1 96.092,66.802
A2.484,2.484 0 0,1 95.546,66.802
A0.472,0.472 0 0,1 95.126,66.382
L95.126 66.802
L94.748 66.802
L94.748 65.500
L95.126 65.500
L95.126 66.298
A0.248,0.248 0 0,0 95.336,66.550
A2.092,2.092 0 0,0 95.861,66.550
A0.248,0.248 0 0,0 96.071,66.298
L96.071 65.500
M98.591 66.739 
L98.591 64.933
L98.486 64.933
L98.486 66.739
L98.696 66.739
L98.696 64.933
L98.696 65.941
A1.422,1.422 0 0,1 98.990,65.668
A0.406,0.406 0 0,1 99.242,65.563
A3.248,3.248 0 0,1 99.956,65.563
A0.355,0.355 0 0,1 100.250,65.899
A2.227,2.227 0 0,1 100.250,66.319
A0.403,0.403 0 0,1 99.935,66.739
A1.906,1.906 0 0,1 99.221,66.739
A0.842,0.842 0 0,1 98.885,66.592
A1.391,1.391 0 0,0 99.179,66.676
A1.815,1.815 0 0,0 99.914,66.655
A0.305,0.305 0 0,0 100.145,66.340
A3.072,3.072 0 0,0 100.145,65.857
A0.352,0.352 0 0,0 99.809,65.605
A1.693,1.693 0 0,0 99.074,65.668
A2.607,2.607 0 0,1 99.809,65.689
A0.233,0.233 0 0,1 100.040,65.920
A1.911,1.911 0 0,1 100.040,66.340
A0.279,0.279 0 0,1 99.767,66.613
A2.260,2.260 0 0,1 98.990,66.592
A0.278,0.278 0 0,1 98.780,66.319
A1.529,1.529 0 0,1 98.780,65.983
A0.264,0.264 0 0,1 99.011,65.752
A3.248,3.248 0 0,1 99.725,65.752
A0.264,0.264 0 0,1 99.956,65.983
A1.529,1.529 0 0,1 99.956,66.319
A0.264,0.264 0 0,1 99.725,66.550
A3.248,3.248 0 0,1 99.011,66.550
A0.264,0.264 0 0,1 98.780,66.319
L98.780 66.802
L98.402 66.802
L98.402 64.870
L98.780 64.870
L98.780 65.815
A0.748,0.748 0 0,1 99.200,65.500
A3.180,3.180 0 0,1 99.998,65.500
A0.367,0.367 0 0,1 100.313,65.815
A2.678,2.678 0 0,1 100.313,66.487
A0.367,0.367 0 0,1 99.998,66.802
A3.263,3.263 0 0,1 99.179,66.802
A0.466,0.466 0 0,1 98.780,66.319
M112.493 67.369 
L112.493 65.563
L112.388 65.563
L112.388 67.369
L112.598 67.369
L112.598 65.563
L112.682 65.500
L112.682 67.432
L112.304 67.432
L112.304 65.500
L112.682 65.500
M114.740 65.710 
A0.661,0.661 0 0,0 114.425,65.563
A2.260,2.260 0 0,0 113.648,65.584
A0.327,0.327 0 0,0 113.417,65.857
A2.771,2.771 0 0,0 113.417,66.466
A0.306,0.306 0 0,0 113.669,66.739
A2.415,2.415 0 0,0 114.425,66.739
A0.806,0.806 0 0,0 114.761,66.571
A1.842,1.842 0 0,1 114.257,66.697
A2.227,2.227 0 0,1 113.837,66.697
A0.334,0.334 0 0,1 113.501,66.445
A4.505,4.505 0 0,1 113.501,65.878
A0.254,0.254 0 0,1 113.753,65.647
A5.017,5.017 0 0,1 114.383,65.605
A0.968,0.968 0 0,1 114.824,65.794
A1.588,1.588 0 0,0 114.446,65.668
A2.581,2.581 0 0,0 113.879,65.689
A0.266,0.266 0 0,0 113.606,65.920
A2.450,2.450 0 0,0 113.606,66.382
A0.295,0.295 0 0,0 113.942,66.634
A2.005,2.005 0 0,0 114.320,66.634
A1.579,1.579 0 0,0 114.761,66.571
A0.389,0.389 0 0,0 114.866,66.319
L114.866 65.983
A0.264,0.264 0 0,0 114.635,65.752
A3.248,3.248 0 0,0 113.921,65.752
A0.264,0.264 0 0,0 113.690,65.983
A1.529,1.529 0 0,0 113.690,66.319
A0.264,0.264 0 0,0 113.921,66.550
A3.248,3.248 0 0,0 114.635,66.550
A0.264,0.264 0 0,0 114.866,66.319
L115.055 66.718
L115.055 65.290
A0.360,0.360 0 0,0 114.719,64.933
A7.342,7.342 0 0,0 113.795,64.933
A0.296,0.296 0 0,0 113.522,65.122
L113.417 65.122
A0.326,0.326 0 0,1 113.711,64.891
A8.509,8.509 0 0,1 114.782,64.891
A0.358,0.358 0 0,1 115.139,65.290
L115.139 66.760
L114.950 66.760
L114.950 65.269
A0.272,0.272 0 0,0 114.698,64.996
A7.342,7.342 0 0,0 113.774,64.996
A0.200,0.200 0 0,0 113.606,65.122
L113.690 65.164
A0.154,0.154 0 0,1 113.837,65.038
A4.566,4.566 0 0,1 114.698,65.038
A0.214,0.214 0 0,1 114.866,65.248
L114.866 65.836
A0.525,0.525 0 0,0 114.446,65.521
A3.180,3.180 0 0,0 113.648,65.521
A0.367,0.367 0 0,0 113.333,65.836
A2.593,2.593 0 0,0 113.333,66.487
A0.367,0.367 0 0,0 113.648,66.802
A3.263,3.263 0 0,0 114.467,66.802
A0.489,0.489 0 0,0 114.866,66.151
L114.866 66.802
L115.244 66.802
L115.244 65.248
A0.419,0.419 0 0,0 114.845,64.849
A12.231,12.231 0 0,0 113.690,64.849
A0.405,0.405 0 0,0 113.312,65.164
L113.690 65.164
M116.336 67.075 
L116.336 65.920
A0.259,0.259 0 0,1 116.504,65.647
A1.158,1.158 0 0,1 117.113,65.647
A0.333,0.333 0 0,1 117.302,65.941
L117.407 65.941
A0.371,0.371 0 0,0 117.071,65.563
A3.118,3.118 0 0,0 116.483,65.563
A0.302,0.302 0 0,0 116.231,65.857
L116.231 67.075
L116.420 67.075
L116.420 66.655
L115.937 66.655
L115.937 66.739
L117.302 66.739
L117.302 66.655
L116.420 66.655
L116.420 65.941
A0.256,0.256 0 0,1 116.630,65.689
A0.858,0.858 0 0,1 117.029,65.710
A0.286,0.286 0 0,1 117.197,65.941
L117.092 66.004
L117.470 66.004
L117.470 65.836
A0.338,0.338 0 0,0 117.155,65.500
A7.561,7.561 0 0,0 116.441,65.500
A0.333,0.333 0 0,0 116.126,65.836
L116.126 66.592
L115.874 66.592
L115.874 66.802
L116.126 66.802
L116.126 67.138
L116.504 67.138
L116.504 66.802
L117.386 66.802
L117.386 66.592
L116.504 66.592
L116.504 66.004
A0.248,0.248 0 0,1 116.714,65.752
A0.669,0.669 0 0,1 116.882,65.752
A0.248,0.248 0 0,1 117.092,66.004
M129.629 66.760 
L129.629 65.542
L129.524 65.542
L129.524 66.760
L129.734 66.760
L129.734 65.542
L129.734 65.983
L129.839 66.424
A0.274,0.274 0 0,0 130.028,66.613
A0.534,0.534 0 0,0 130.532,66.571
A0.361,0.361 0 0,0 130.679,66.340
L130.868 66.340
A0.362,0.362 0 0,1 130.847,66.529
A0.324,0.324 0 0,1 130.616,66.718
A2.021,2.021 0 0,1 130.301,66.760
A0.462,0.462 0 0,1 129.923,66.592
A0.872,0.872 0 0,0 130.175,66.697
A0.662,0.662 0 0,0 130.616,66.634
A0.347,0.347 0 0,0 130.763,66.340
L130.952 66.298
L130.952 66.466
A0.333,0.333 0 0,1 130.637,66.802
A4.003,4.003 0 0,1 130.259,66.802
A0.466,0.466 0 0,1 129.818,66.319
L129.818 66.802
L129.440 66.802
L129.440 65.500
L129.818 65.500
L129.818 66.298
A0.281,0.281 0 0,0 130.070,66.571
A1.146,1.146 0 0,0 130.322,66.571
A0.281,0.281 0 0,0 130.574,66.298
L130.952 66.298
M131.771 65.689 
A0.121,0.121 0 0,1 131.876,65.605
A9.178,9.178 0 0,1 133.031,65.584
A0.231,0.231 0 0,1 133.220,65.878
A0.222,0.222 0 0,1 133.031,66.130
A16.676,16.676 0 0,1 131.981,66.151
A0.305,0.305 0 0,0 131.771,66.382
A0.435,0.435 0 0,0 131.771,66.571
A0.214,0.214 0 0,0 131.981,66.739
A5.681,5.681 0 0,0 133.052,66.718
A0.178,0.178 0 0,0 133.157,66.592
L133.262 66.592
A0.161,0.161 0 0,1 133.115,66.760
A5.732,5.732 0 0,1 131.855,66.760
A0.189,0.189 0 0,1 131.687,66.592
A0.872,0.872 0 0,1 131.687,66.319
A0.214,0.214 0 0,1 131.897,66.130
L132.884 66.109
A0.242,0.242 0 0,0 132.884,65.626
A14.676,14.676 0 0,0 131.960,65.647
A0.088,0.088 0 0,0 131.876,65.731
L131.645 65.731
A0.208,0.208 0 0,1 131.834,65.563
A8.147,8.147 0 0,1 133.115,65.563
A0.201,0.201 0 0,1 133.304,65.773
A1.502,1.502 0 0,1 133.304,65.962
A0.171,0.171 0 0,1 133.157,66.151
A6.950,6.950 0 0,1 132.065,66.193
A0.275,0.275 0 0,0 132.023,66.718
A5.878,5.878 0 0,0 132.947,66.697
A0.133,0.133 0 0,0 133.052,66.571
L132.968 66.550
L133.346 66.550
A0.251,0.251 0 0,1 133.115,66.802
A10.345,10.345 0 0,1 131.813,66.802
A0.237,0.237 0 0,1 131.603,66.550
L131.603 66.319
A0.217,0.217 0 0,1 131.813,66.088
L132.800 66.088
A0.210,0.210 0 0,0 132.800,65.668
L132.128 65.668
A0.176,0.176 0 0,0 131.960,65.794
L131.582 65.794
L131.582 65.752
A0.229,0.229 0 0,1 131.792,65.521
A11.012,11.012 0 0,1 133.178,65.521
A0.229,0.229 0 0,1 133.388,65.752
L133.388 65.962
A0.229,0.229 0 0,1 133.178,66.193
L132.149 66.235
A0.222,0.222 0 0,0 132.149,66.676
L132.800 66.676
A0.176,0.176 0 0,0 132.968,66.550
M134.480 67.075 
L134.480 65.920
A0.259,0.259 0 0,1 134.648,65.647
A1.158,1.158 0 0,1 135.257,65.647
A0.333,0.333 0 0,1 135.446,65.941
L135.551 65.941
A0.371,0.371 0 0,0 135.215,65.563
A3.118,3.118 0 0,0 134.627,65.563
A0.302,0.302 0 0,0 134.375,65.857
L134.375 67.075
L134.564 67.075
L134.564 66.655
L134.081 66.655
L134.081 66.739
L135.446 66.739
L135.446 66.655
L134.564 66.655
L134.564 65.941
A0.256,0.256 0 0,1 134.774,65.689
A0.858,0.858 0 0,1 135.173,65.710
A0.286,0.286 0 0,1 135.341,65.941
L135.236 66.004
L135.614 66.004
L135.614 65.836
A0.338,0.338 0 0,0 135.299,65.500
A7.561,7.561 0 0,0 134.585,65.500
A0.333,0.333 0 0,0 134.270,65.836
L134.270 66.592
L134.018 66.592
L134.018 66.802
L134.270 66.802
L134.270 67.138
L134.648 67.138
L134.648 66.802
L135.530 66.802
L135.530 66.592
L134.648 66.592
L134.648 66.004
A0.248,0.248 0 0,1 134.858,65.752
A0.669,0.669 0 0,1 135.026,65.752
A0.248,0.248 0 0,1 135.236,66.004"
fill="none" vector-effect="non-scaling-stroke" stroke="#000000" stroke-width="0.200mm" fpd:engraving_ral_9005="1" />
<circle cx="5.000" cy="79.500" r="1.750"
fill="#ffffff" vector-effect="non-scaling-stroke" stroke="#000000" stroke-width="0.100mm" 
/>
<circle cx="5.000" cy="39.500" r="1.750"
fill="#ffffff" vector-effect="non-scaling-stroke" stroke="#000000" stroke-width="0.100mm" 
/>
<circle cx="164.500" cy="39.500" r="1.750"
fill="#ffffff" vector-effect="non-scaling-stroke" stroke="#000000" stroke-width="0.100mm" 
/>
<circle cx="165.000" cy="79.500" r="1.750"
fill="#ffffff" vector-effect="non-scaling-stroke" stroke="#000000" stroke-width="0.100mm" 
/>
<rect x="30.750" y="11.000" width="121.000" height="14.000" rx="1.500"
fill="#ffffff" vector-effect="non-scaling-stroke" stroke="#000000" stroke-width="0.100mm" 
/>
<rect x="12.500" y="80.500" width="145.000" height="3.000" rx="1.500"
fill="#ffffff" vector-effect="non-scaling-stroke" stroke="#000000" stroke-width="0.100mm" 
/>
<circle cx="114.500" cy="59.000" r="3.000"
fill="#ffffff" vector-effect="non-scaling-stroke" stroke="#000000" stroke-width="0.100mm" 
/>
<circle cx="132.500" cy="59.000" r="3.000"
fill="#ffffff" vector-effect="non-scaling-stroke" stroke="#000000" stroke-width="0.100mm" 
/>
<circle cx="77.000" cy="59.000" r="3.000"
fill="#ffffff" vector-effect="non-scaling-stroke" stroke="#000000" stroke-width="0.100mm" 
/>
<circle cx="55.000" cy="59.000" r="3.000"
fill="#ffffff" vector-effect="non-scaling-stroke" stroke="#000000" stroke-width="0.100mm" 
/>
<circle cx="96.000" cy="59.000" r="3.000"
fill="#ffffff" vector-effect="non-scaling-stroke" stroke="#000000" stroke-width="0.100mm" 
/>
<circle cx="35.000" cy="59.000" r="3.000"
fill="#ffffff" vector-effect="non-scaling-stroke" stroke="#000000" stroke-width="0.100mm" 
/>
<path d="M170.000 89.500 
L0.000 89.500
L0.000 89.500
L0.000 0.000
L0.000 0.000
L170.000 0.000
L170.000 0.000
L170.000 89.500
L170.000 89.500"
fill="none" vector-effect="non-scaling-stroke" stroke="#000000" stroke-width="0.100mm" />
</g>
</svg>
