<?xml version="1.0" standalone="no"?>
<!DOCTYPE svg PUBLIC "-//W3C//DTD SVG 1.1//EN" 
  "http://www.w3.org/Graphics/SVG/1.1/DTD/svg11.dtd">
<svg width="152.000mm" height="52.000mm" version="1.1"
     viewBox="0 0 152.000 52.000"
     xmlns="http://www.w3.org/2000/svg"  xmlns:xlink="http://www.w3.org/1999/xlink" 
     xmlns:fpd="http://www.schaeffer-ag.de">
  <desc>Diese Zeichnung wurde mit dem Frontplatten Desinger durch den Export der Datei 'buzzclock_red.fpd' erzeugt.</desc>
  <defs>
    <pattern id="revside-fill" x="1" y="1" width="1.5" height="1.5" patternUnits="userSpaceOnUse">
      <line x1="0" y1="0" x2="1" y2="1" style="stroke-width:0.2; stroke:black; stroke-dasharray:none;" />
      <line x1="0" y1="1" x2="1" y2="0" style="stroke-width:0.2; stroke:black; stroke-dasharray:none;" />
    </pattern>
    <pattern id="revside-fill-e0e0e0" x="1" y="1" width="1.5" height="1.5" patternUnits="userSpaceOnUse">
      <line x1="0" y1="0" x2="1.5" y2="1.5" style="stroke-width:0.2; stroke:#e0e0e0; stroke-dasharray:none;" />
      <line x1="0" y1="1.5" x2="1.5" y2="0" style="stroke-width:0.2; stroke:#e0e0e0; stroke-dasharray:none;" />
    </pattern>
  </defs>
<g transform="scale(1,-1) translate(0, -52.000)" 
   fill-rule="evenodd"
   style="stroke-linecap:round; stroke-linejoin:round; stroke-opacity:1.0; stroke-opacity:1.0;">
<path d="M152.000 52.000 
L0.000 52.000
L0.000 52.000
L0.000 0.000
L0.000 0.000
L152.000 0.000
L152.000 0.000
L152.000 52.000
L152.000 52.000z"
fill="#dc3530" vector-effect="non-scaling-stroke" stroke="#000000" stroke-width="0.100mm" />
<path d="M152.000 52.000 
L0.000 52.000
L0.000 52.000
L0.000 0.000
L0.000 0.000
L152.000 0.000
L152.000 0.000
L152.000 52.000
L152.000 52.000"
fill="none" vector-effect="non-scaling-stroke" stroke="#000000" stroke-width="0.100mm" />
</g>
</svg>
